# Unity3D Mesh Exporter
v -2.799741 1.478377 -0.1574759
v -2.534126 1.471628 -1.116186
v 2.354356 1.831673 0.0972311
v 0.8616761 0.2469047 1.162125
v -0.4760857 0.2953942 0.8137772
v -0.03545064 0.3091486 -0.7454543
v 1.412671 0.1764156 1.591447
v -1.914406 0.2857298 -1.525774
v -2.462571 0.2772353 0.5092114
v 1.418837 0.1680916 1.590947
v 2.265307 0.1572991 -0.3892628
v -1.911296 0.2839042 -1.517787
v 0.8645726 0.236327 1.161655
v -0.03456486 0.3033622 -0.7482214
v 1.301548 0.2603011 -0.3817614
v -2.534054 1.474349 -1.120456
v -2.612684 0.8972918 -1.13122
v -2.876149 0.9021032 -0.1696256
v 2.10674 -0.05342096 0.7323173
v 2.292783 -0.07080165 0.0719939
v 2.356451 1.832201 0.09657013
v 2.356488 1.838275 0.09698211
v 2.178768 1.831918 0.7531929
v 2.10674 -0.05342096 0.7323173
vn 0.0671039 -0.9974172 0.02561283
vn 0.0671039 -0.9974172 0.02561283
vn 0.0671039 -0.9974172 0.02561283
vn -0.03160195 -0.999343 -0.01774607
vn -0.03160195 -0.999343 -0.01774607
vn -0.03160195 -0.999343 -0.01774607
vn 0.02310455 0.999679 0.0103966
vn 0.02310455 0.999679 0.0103966
vn 0.02310455 0.999679 0.0103966
vn 0.02848221 0.9995717 0.006727341
vn 0.02848221 0.9995717 0.006727341
vn 0.02848221 0.9995717 0.006727341
vn -0.02593743 -0.999402 -0.02286732
vn -0.02593743 -0.999402 -0.02286732
vn -0.02593743 -0.999402 -0.02286732
vn -0.9554419 0.1350853 -0.2624553
vn -0.9554419 0.1350853 -0.2624553
vn -0.9554419 0.1350853 -0.2624553
vn 0.9616677 -0.03568492 0.2718857
vn 0.9616677 -0.03568492 0.2718857
vn 0.9616677 -0.03568492 0.2718857
vn 0.9645627 -0.03973896 0.2608443
vn 0.9645627 -0.03973896 0.2608443
vn 0.9645627 -0.03973896 0.2608443
f 1/1/1 2/2/2 3/3/3
f 4/4/4 5/5/5 6/6/6
f 7/7/7 8/8/8 9/9/9
f 10/10/10 11/11/11 12/12/12
f 13/13/13 14/14/14 15/15/15
f 16/16/16 17/17/17 18/18/18
f 19/19/19 20/20/20 21/21/21
f 22/22/22 23/23/23 24/24/24
