# Unity3D Mesh Exporter
v 1.324568 0.8774241 2.832268
v 1.322263 0.8953204 1.824436
v 1.302361 1.450841 1.826794
v -5.599785 0.6710432 2.652662
v 1.324568 0.8774241 2.832268
v 1.322263 0.8953204 1.824436
v -5.541273 1.245666 1.682303
v -5.55239 1.238512 2.66655
v -5.599785 0.6710432 2.652662
v -5.579797 0.6461878 2.684985
v -5.570824 0.6800379 1.684955
v -5.541728 1.245909 1.68413
v -1.942123 0.2626727 2.951251
v -3.670896 0.1862458 2.913991
v -3.673576 0.1804021 3.277352
v -1.934858 0.07533572 2.941085
v -1.941032 0.251078 3.312007
v -1.943904 0.261433 2.949787
v -3.659071 0.009345569 2.910252
v -3.674074 0.2022198 2.911401
v -1.934858 0.07533572 2.941085
v -3.676179 0.1795697 3.286535
v -3.659071 0.009345569 2.910252
v -3.674074 0.2022198 2.911401
v -1.941575 0.2596025 2.955526
v -1.934111 0.2408149 3.315646
v -3.676179 0.1795697 3.286535
v -1.947662 0.3840617 3.308131
v -3.666969 0.3506136 3.283459
v -3.658407 0.1910076 3.288671
v -1.850591 0.2655148 1.528646
v -3.64515 0.194758 1.102217
v -3.651013 0.2040471 1.508
v -3.646868 0.193339 1.101191
v -1.843146 0.2405976 1.119576
v -1.851811 0.2671582 1.527817
v -3.652354 0.01602449 1.521587
v -3.655619 0.2001202 1.510183
v -3.646868 0.193339 1.101191
v -1.847757 0.2565525 1.536128
v -3.656138 0.1993951 1.51002
v -3.652354 0.01602449 1.521587
v -1.841396 0.06711389 1.546366
v -1.847757 0.2565525 1.536128
v -3.656138 0.1993951 1.51002
v -3.649545 0.0004361346 1.519725
v -1.843013 0.2577408 1.537299
v -1.841396 0.06711389 1.546366
v -1.839402 0.0686021 1.538581
v -1.840811 0.2425515 1.131351
v -1.846837 0.261418 1.533482
v 0.3688982 0.1177391 3.297256
v -4.366659 -0.06973954 3.223298
v -4.373341 -0.05204065 3.289164
v -4.373148 -0.03967635 3.275941
v 0.3718806 0.1377052 3.362033
v 0.3676118 0.1188112 3.296879
v -3.674425 0.1936832 2.916476
v -1.930707 0.06478286 2.941668
v -1.946608 0.2639808 2.944856
v -4.039391 0.08473414 1.115696
v -4.119184 0.0849262 1.113039
v -4.12528 0.231601 1.093913
v -4.120201 0.238031 1.102112
v -4.053041 0.2373115 1.099331
v -4.044317 0.09065826 1.118819
v -5.617731 -0.1071081 2.209537
v -3.678229 0.02177296 3.29323
v -3.653109 0.006057791 1.13193
v -4.477477 -0.03626466 1.512606
v -5.102968 -0.05410144 1.119757
v -3.853513 -0.02654061 1.149999
v -5.077002 -0.06058129 1.295213
v -5.289684 -0.06381704 1.155463
v -5.099718 -0.05494077 1.122093
v -5.544852 -0.08470774 1.375571
v -5.24917 -0.07937494 1.462353
v -5.316016 -0.06645181 1.175264
v -5.614432 -0.1032102 1.690123
v -5.320156 -0.09174188 1.60746
v -5.560558 -0.08887377 1.41369
v -5.620892 -0.1234712 2.69011
v -5.197946 -0.09718534 2.196031
v -5.613379 -0.1041106 1.721258
v -5.452137 -0.1182014 2.775448
v -5.604844 -0.1234038 2.850621
v -5.620456 -0.1223896 2.690185
v -5.383865 -0.115607 2.842134
v -5.442619 -0.1226494 3.09281
v -5.569999 -0.1255606 2.939415
v -5.177392 -0.1030408 2.915296
v -5.098598 -0.1077247 3.231205
v -5.349485 -0.1195624 3.152394
v -4.815084 -0.08139497 2.783177
v -4.389471 -0.07411087 3.27494
v -5.042137 -0.1027461 3.248786
v -4.612846 0.1619498 3.307737
v -4.534227 0.1666612 3.310405
v -4.520803 0.01108025 3.298836
v -4.520111 0.01011522 3.29931
v -4.603346 0.007827539 3.295648
v -4.612846 0.1619498 3.307737
v 0.5355003 0.3276657 3.389226
v 0.5375309 0.2442157 3.384904
v 0.4595087 0.251603 3.381202
v 0.4545121 0.2430684 3.384599
v 0.4549268 0.3276237 3.389824
v 0.5355003 0.3276657 3.389226
v 0.5723732 0.1359612 3.177381
v 0.8071059 0.148902 3.357669
v 0.4007972 0.1291888 3.354208
v 1.142854 0.1642937 3.243683
v 0.8493101 0.1461367 3.104742
v 0.8229468 0.1562364 3.35431
v 0.9950703 0.1661348 2.96654
v 1.305655 0.18442 2.943164
v 1.186406 0.1779811 3.198478
v 1.069895 0.1636889 2.368787
v 1.320809 0.1848771 2.417743
v 1.315054 0.1831194 2.864426
v 1.051256 0.1667604 1.950154
v 1.343784 0.1845589 1.781853
v 1.336123 0.1845859 2.07796
v 1.192902 0.1767149 1.39029
v 0.958414 0.1599504 1.661923
v 1.344341 0.1837823 1.743247
v 1.117695 0.1806963 1.319065
v 0.7924995 0.15664 1.569444
v 0.7612402 0.1638829 1.226967
v 0.3738531 0.1313343 1.487317
v -0.08583101 0.1187138 1.207909
v 0.7620537 0.1469461 1.224684
v 0.5164734 0.3956332 1.188355
v 0.5231197 0.246886 1.195083
v 0.6107578 0.2435905 1.193578
v 0.6080751 0.2440377 1.194622
v 0.6008314 0.4026849 1.190255
v 0.516213 0.3971522 1.189013
v -0.1256667 0.6513258 1.162726
v -0.1111762 0.1297042 1.189719
v -0.09261366 0.1253262 1.194902
v -0.1410185 1.020976 1.172002
v -0.1062745 0.6498756 1.162295
v -0.1260956 0.6531753 1.162889
v -0.1477985 1.276417 1.197882
v -0.1144855 1.022094 1.175406
v -0.1410185 1.020976 1.172002
v -0.1526512 1.485359 1.233068
v -0.1207918 1.267412 1.197198
v -0.1477985 1.276417 1.197882
v -0.1768908 1.60101 1.260558
v -0.1267077 1.484117 1.233149
v -0.1526512 1.485359 1.233068
v -0.2143672 1.656783 1.276036
v -0.1550419 1.614746 1.266539
v -0.1768908 1.60101 1.260558
v -0.2763795 1.705313 1.293902
v -0.1967558 1.67593 1.284433
v -0.2143672 1.656783 1.276036
v -0.3632455 1.734126 1.30845
v -0.2651 1.730216 1.307553
v -0.2763795 1.705313 1.293902
v -0.4411972 1.737436 1.309387
v -0.3902079 1.765984 1.326071
v -0.3632455 1.734126 1.30845
v -0.5285341 1.734236 1.306934
v -0.4670711 1.766861 1.322418
v -0.4411972 1.737436 1.309387
v -0.6008649 1.730904 1.304117
v -0.568904 1.764268 1.319437
v -0.5285341 1.734236 1.306934
v -0.6640877 1.718114 1.293553
v -0.6588519 1.749192 1.310863
v -0.6008649 1.730904 1.304117
v -0.7329243 1.681866 1.273159
v -0.7101926 1.716512 1.293819
v -0.6640877 1.718114 1.293553
v -0.8104376 1.576191 1.238766
v -0.7928151 1.64792 1.263477
v -0.7329243 1.681866 1.273159
v -0.82049 1.47654 1.213847
v -0.8351529 1.493825 1.223551
v -0.8104376 1.576191 1.238766
v -0.8434011 1.388445 1.198893
v -0.8182845 1.395362 1.197672
v -0.82049 1.47654 1.213847
v -0.8341873 1.254567 1.178921
v -0.8111084 1.265876 1.177842
v -0.8434011 1.388445 1.198893
v -0.8147337 1.25857 1.178041
v -0.8108227 1.11072 1.162693
v -0.8320715 1.142659 1.16527
v -0.8046917 0.926918 1.153551
v -0.8268327 1.022717 1.160503
v -0.8110647 1.103235 1.161185
v -0.8276984 0.8128437 1.143466
v -0.8020117 0.8239456 1.143809
v -0.8046917 0.926918 1.153551
v -0.8247401 0.6641801 1.139838
v -0.7991524 0.6943158 1.144885
v -0.8276984 0.8128437 1.143466
v -0.7909267 0.435379 1.148057
v -0.8233707 0.4605567 1.146898
v -0.7929934 0.5743193 1.145776
v -0.7844128 0.09950366 1.176
v -0.8156358 0.1904023 1.163616
v -0.7910771 0.1909552 1.166717
v -1.835076 0.05569111 1.169685
v -0.801357 0.09905235 1.188797
v -0.9819486 0.09288292 1.188094
v -1.834678 0.09399901 1.142788
v -1.835076 0.05569111 1.169685
v -0.801357 0.09905235 1.188797
v -0.8248701 0.1376722 1.168072
v -1.834678 0.09399901 1.142788
v -1.835076 0.05569111 1.169685
v -1.976145 0.04971597 2.30446
v -1.60358 0.06298447 2.127597
v -1.677086 0.05932247 2.592948
v 0.8351166 0.1344855 2.926314
v 0.8622512 0.1438725 1.674092
v -0.8975957 0.0752861 2.193637
v -3.459904 0.0007904693 1.808542
v -3.50265 -0.004755415 2.630664
v -2.002938 0.05008886 2.295808
vn 0.9993572 0.03580939 -0.001649419
vn 0.9993572 0.03580939 -0.001649419
vn 0.9993572 0.03580939 -0.001649419
vn -0.03024882 0.9993836 0.01781547
vn -0.03024882 0.9993836 0.01781547
vn -0.03024882 0.9993836 0.01781547
vn 0.9964521 -0.08348467 0.01064803
vn 0.9964521 -0.08348467 0.01064803
vn 0.9964521 -0.08348467 0.01064803
vn 0.9986553 -0.05133691 0.007223079
vn 0.9986553 -0.05133691 0.007223079
vn 0.9986553 -0.05133691 0.007223079
vn -0.04449863 0.9988855 0.01573613
vn -0.04449863 0.9988855 0.01573613
vn -0.04449863 0.9988855 0.01573613
vn -0.9987845 -0.04885532 0.006522558
vn -0.9987845 -0.04885532 0.006522558
vn -0.9987845 -0.04885532 0.006522558
vn 0.01759846 0.007322257 -0.9998183
vn 0.01759846 0.007322257 -0.9998183
vn 0.01759846 0.007322257 -0.9998183
vn 0.9969406 0.07748467 0.01027256
vn 0.9969406 0.07748467 0.01027256
vn 0.9969406 0.07748467 0.01027256
vn 0.03596726 -0.9979566 -0.05280932
vn 0.03596726 -0.9979566 -0.05280932
vn 0.03596726 -0.9979566 -0.05280932
vn -0.01496037 0.0318316 0.9993812
vn -0.01496037 0.0318316 0.9993812
vn -0.01496037 0.0318316 0.9993812
vn -0.03384391 0.9991541 -0.02336166
vn -0.03384391 0.9991541 -0.02336166
vn -0.03384391 0.9991541 -0.02336166
vn 0.02546882 -0.9975313 0.06544122
vn 0.02546882 -0.9975313 0.06544122
vn 0.02546882 -0.9975313 0.06544122
vn -0.9995969 -0.01903167 -0.02107153
vn -0.9995969 -0.01903167 -0.02107153
vn -0.9995969 -0.01903167 -0.02107153
vn -0.01638575 0.06260815 0.9979036
vn -0.01638575 0.06260815 0.9979036
vn -0.01638575 0.06260815 0.9979036
vn -0.01610314 0.05342054 0.9984423
vn -0.01610314 0.05342054 0.9984423
vn -0.01610314 0.05342054 0.9984423
vn 0.01646229 -0.04736682 -0.9987419
vn 0.01646229 -0.04736682 -0.9987419
vn 0.01646229 -0.04736682 -0.9987419
vn 0.9991576 0.03887515 0.01314814
vn 0.9991576 0.03887515 0.01314814
vn 0.9991576 0.03887515 0.01314814
vn -0.03407572 0.9643089 -0.2625779
vn -0.03407572 0.9643089 -0.2625779
vn -0.03407572 0.9643089 -0.2625779
vn -0.03088955 0.9605135 -0.2765133
vn -0.03088955 0.9605135 -0.2765133
vn -0.03088955 0.9605135 -0.2765133
vn -0.01571915 -0.01725646 0.9997275
vn -0.01571915 -0.01725646 0.9997275
vn -0.01571915 -0.01725646 0.9997275
vn 0.0327088 -0.1278931 -0.9912484
vn 0.0327088 -0.1278931 -0.9912484
vn 0.0327088 -0.1278931 -0.9912484
vn -0.04244518 -0.1340936 -0.9900593
vn -0.04244518 -0.1340936 -0.9900593
vn -0.04244518 -0.1340936 -0.9900593
vn -0.06186461 0.9980526 -0.007976055
vn -0.06186461 0.9980526 -0.007976055
vn -0.06186461 0.9980526 -0.007976055
vn 0.02179302 -0.9997053 0.01069164
vn 0.02179302 -0.9997053 0.01069164
vn 0.02179302 -0.9997053 0.01069164
vn 0.04001762 -0.9984844 -0.0377831
vn 0.04001762 -0.9984844 -0.0377831
vn 0.04001762 -0.9984844 -0.0377831
vn -0.03347372 0.9980482 0.05272045
vn -0.03347372 0.9980482 0.05272045
vn -0.03347372 0.9980482 0.05272045
vn -0.02577951 0.9985732 0.04676408
vn -0.02577951 0.9985732 0.04676408
vn -0.02577951 0.9985732 0.04676408
vn -0.03912284 0.999041 0.01966051
vn -0.03912284 0.999041 0.01966051
vn -0.03912284 0.999041 0.01966051
vn 0.02952658 -0.9995216 -0.009191953
vn 0.02952658 -0.9995216 -0.009191953
vn 0.02952658 -0.9995216 -0.009191953
vn 0.04415789 -0.9988675 -0.01771189
vn 0.04415789 -0.9988675 -0.01771189
vn 0.04415789 -0.9988675 -0.01771189
vn 0.05613592 -0.9980077 -0.02879871
vn 0.05613592 -0.9980077 -0.02879871
vn 0.05613592 -0.9980077 -0.02879871
vn 0.04477784 -0.9987095 -0.02396137
vn 0.04477784 -0.9987095 -0.02396137
vn 0.04477784 -0.9987095 -0.02396137
vn 0.02921893 0.07663073 -0.9966313
vn 0.02921893 0.07663073 -0.9966313
vn 0.02921893 0.07663073 -0.9966313
vn 0.04159797 0.08068103 -0.9958716
vn 0.04159797 0.08068103 -0.9958716
vn 0.04159797 0.08068103 -0.9958716
vn 0.05232928 0.05292185 -0.9972267
vn 0.05232928 0.05292185 -0.9972267
vn 0.05232928 0.05292185 -0.9972267
vn -0.007447875 0.06171867 -0.9980659
vn -0.007447875 0.06171867 -0.9980659
vn -0.007447875 0.06171867 -0.9980659
vn 0.04838509 -0.9987909 0.00869482
vn 0.04838509 -0.9987909 0.00869482
vn 0.04838509 -0.9987909 0.00869482
vn -0.04059225 0.9981762 -0.04468303
vn -0.04059225 0.9981762 -0.04468303
vn -0.04059225 0.9981762 -0.04468303
vn 0.05894827 -0.9982582 0.002357029
vn 0.05894827 -0.9982582 0.002357029
vn 0.05894827 -0.9982582 0.002357029
vn 0.08469246 -0.9964031 -0.002829768
vn 0.08469246 -0.9964031 -0.002829768
vn 0.08469246 -0.9964031 -0.002829768
vn 0.06169857 -0.9980934 0.001687349
vn 0.06169857 -0.9980934 0.001687349
vn 0.06169857 -0.9980934 0.001687349
vn -0.06312379 0.9979805 0.007100758
vn -0.06312379 0.9979805 0.007100758
vn -0.06312379 0.9979805 0.007100758
vn 0.05380755 -0.9982122 -0.02602202
vn 0.05380755 -0.9982122 -0.02602202
vn 0.05380755 -0.9982122 -0.02602202
vn 0.03347351 -0.9993902 -0.009929731
vn 0.03347351 -0.9993902 -0.009929731
vn 0.03347351 -0.9993902 -0.009929731
vn 0.01889333 0.04602285 0.9987617
vn 0.01889333 0.04602285 0.9987617
vn 0.01889333 0.04602285 0.9987617
vn -0.01642374 0.02676523 0.9995068
vn -0.01642374 0.02676523 0.9995068
vn -0.01642374 0.02676523 0.9995068
vn -0.2593066 0.04272721 0.9648495
vn -0.2593066 0.04272721 0.9648495
vn -0.2593066 0.04272721 0.9648495
vn -0.02597344 0.02370965 -0.9993814
vn -0.02597344 0.02370965 -0.9993814
vn -0.02597344 0.02370965 -0.9993814
vn 0.1222941 0.1032548 -0.9871082
vn 0.1222941 0.1032548 -0.9871082
vn 0.1222941 0.1032548 -0.9871082
vn 0.0306013 0.1666729 -0.9855372
vn 0.0306013 0.1666729 -0.9855372
vn 0.0306013 0.1666729 -0.9855372
vn 0.0142644 0.2340637 -0.9721166
vn 0.0142644 0.2340637 -0.9721166
vn 0.0142644 0.2340637 -0.9721166
vn 0.06622847 0.307893 -0.9491131
vn 0.06622847 0.307893 -0.9491131
vn 0.06622847 0.307893 -0.9491131
vn 0.02963595 0.3784592 -0.9251434
vn 0.02963595 0.3784592 -0.9251434
vn 0.02963595 0.3784592 -0.9251434
vn 0.01096999 0.476844 -0.8789195
vn 0.01096999 0.476844 -0.8789195
vn 0.01096999 0.476844 -0.8789195
vn 0.01036371 0.4906849 -0.8712755
vn 0.01036371 0.4906849 -0.8712755
vn 0.01036371 0.4906849 -0.8712755
vn 0.01046788 0.4125964 -0.9108537
vn 0.01046788 0.4125964 -0.9108537
vn 0.01046788 0.4125964 -0.9108537
vn 0.01702528 0.4037223 -0.9147232
vn 0.01702528 0.4037223 -0.9147232
vn 0.01702528 0.4037223 -0.9147232
vn 0.04934978 0.4796456 -0.8760734
vn 0.04934978 0.4796456 -0.8760734
vn 0.04934978 0.4796456 -0.8760734
vn -0.02309702 0.5231569 -0.8519232
vn -0.02309702 0.5231569 -0.8519232
vn -0.02309702 0.5231569 -0.8519232
vn -0.03677025 0.3335617 -0.9420109
vn -0.03677025 0.3335617 -0.9420109
vn -0.03677025 0.3335617 -0.9420109
vn -0.3009861 0.2598083 -0.9175549
vn -0.3009861 0.2598083 -0.9175549
vn -0.3009861 0.2598083 -0.9175549
vn 0.1002957 -0.1918088 0.976294
vn 0.1002957 -0.1918088 0.976294
vn 0.1002957 -0.1918088 0.976294
vn 0.1140939 -0.1388959 0.9837126
vn 0.1140939 -0.1388959 0.9837126
vn 0.1140939 -0.1388959 0.9837126
vn 0.03597701 0.1041264 -0.9939132
vn 0.03597701 0.1041264 -0.9939132
vn 0.03597701 0.1041264 -0.9939132
vn -0.148377 0.03742286 -0.9882225
vn -0.148377 0.03742286 -0.9882225
vn -0.148377 0.03742286 -0.9882225
vn 0.02713119 -0.09345631 0.9952537
vn 0.02713119 -0.09345631 0.9952537
vn 0.02713119 -0.09345631 0.9952537
vn -0.1623947 -0.02730572 0.986348
vn -0.1623947 -0.02730572 0.986348
vn -0.1623947 -0.02730572 0.986348
vn 0.02321475 -0.01606491 -0.9996014
vn 0.02321475 -0.01606491 -0.9996014
vn 0.02321475 -0.01606491 -0.9996014
vn 0.1267468 -0.09103461 -0.987749
vn 0.1267468 -0.09103461 -0.987749
vn 0.1267468 -0.09103461 -0.987749
vn 0.02829947 -0.8819914 0.4704152
vn 0.02829947 -0.8819914 0.4704152
vn 0.02829947 -0.8819914 0.4704152
vn -0.03921298 0.5744619 0.8175915
vn -0.03921298 0.5744619 0.8175915
vn -0.03921298 0.5744619 0.8175915
vn -0.04530507 0.5743562 0.8173509
vn -0.04530507 0.5743562 0.8173509
vn -0.04530507 0.5743562 0.8173509
vn 0.03444183 -0.9994038 -0.002424231
vn 0.03444183 -0.9994038 -0.002424231
vn 0.03444183 -0.9994038 -0.002424231
vn -0.03697044 0.9992939 0.006689869
vn -0.03697044 0.9992939 0.006689869
vn -0.03697044 0.9992939 0.006689869
vn -0.03545278 0.9993594 0.004898137
vn -0.03545278 0.9993594 0.004898137
vn -0.03545278 0.9993594 0.004898137
f 1/1/1 2/2/2 3/3/3
f 4/4/4 5/5/5 6/6/6
f 7/7/7 8/8/8 9/9/9
f 10/10/10 11/11/11 12/12/12
f 13/13/13 14/14/14 15/15/15
f 16/16/16 17/17/17 18/18/18
f 19/19/19 20/20/20 21/21/21
f 22/22/22 23/23/23 24/24/24
f 25/25/25 26/26/26 27/27/27
f 28/28/28 29/29/29 30/30/30
f 31/31/31 32/32/32 33/33/33
f 34/34/34 35/35/35 36/36/36
f 37/37/37 38/38/38 39/39/39
f 40/40/40 41/41/41 42/42/42
f 43/43/43 44/44/44 45/45/45
f 46/46/46 47/47/47 48/48/48
f 49/49/49 50/50/50 51/51/51
f 52/52/52 53/53/53 54/54/54
f 55/55/55 56/56/56 57/57/57
f 58/58/58 59/59/59 60/60/60
f 61/61/61 62/62/62 63/63/63
f 64/64/64 65/65/65 66/66/66
f 67/67/67 68/68/68 69/69/69
f 70/70/70 71/71/71 72/72/72
f 73/73/73 74/74/74 75/75/75
f 76/76/76 77/77/77 78/78/78
f 79/79/79 80/80/80 81/81/81
f 82/82/82 83/83/83 84/84/84
f 85/85/85 86/86/86 87/87/87
f 88/88/88 89/89/89 90/90/90
f 91/91/91 92/92/92 93/93/93
f 94/94/94 95/95/95 96/96/96
f 97/97/97 98/98/98 99/99/99
f 100/100/100 101/101/101 102/102/102
f 103/103/103 104/104/104 105/105/105
f 106/106/106 107/107/107 108/108/108
f 109/109/109 110/110/110 111/111/111
f 112/112/112 113/113/113 114/114/114
f 115/115/115 116/116/116 117/117/117
f 118/118/118 119/119/119 120/120/120
f 121/121/121 122/122/122 123/123/123
f 124/124/124 125/125/125 126/126/126
f 127/127/127 128/128/128 129/129/129
f 130/130/130 131/131/131 132/132/132
f 133/133/133 134/134/134 135/135/135
f 136/136/136 137/137/137 138/138/138
f 139/139/139 140/140/140 141/141/141
f 142/142/142 143/143/143 144/144/144
f 145/145/145 146/146/146 147/147/147
f 148/148/148 149/149/149 150/150/150
f 151/151/151 152/152/152 153/153/153
f 154/154/154 155/155/155 156/156/156
f 157/157/157 158/158/158 159/159/159
f 160/160/160 161/161/161 162/162/162
f 163/163/163 164/164/164 165/165/165
f 166/166/166 167/167/167 168/168/168
f 169/169/169 170/170/170 171/171/171
f 172/172/172 173/173/173 174/174/174
f 175/175/175 176/176/176 177/177/177
f 178/178/178 179/179/179 180/180/180
f 181/181/181 182/182/182 183/183/183
f 184/184/184 185/185/185 186/186/186
f 187/187/187 188/188/188 189/189/189
f 190/190/190 191/191/191 192/192/192
f 193/193/193 194/194/194 195/195/195
f 196/196/196 197/197/197 198/198/198
f 199/199/199 200/200/200 201/201/201
f 202/202/202 203/203/203 204/204/204
f 205/205/205 206/206/206 207/207/207
f 208/208/208 209/209/209 210/210/210
f 211/211/211 212/212/212 213/213/213
f 214/214/214 215/215/215 216/216/216
f 217/217/217 218/218/218 219/219/219
f 220/220/220 221/221/221 222/222/222
f 223/223/223 224/224/224 225/225/225
