# Unity3D Mesh Exporter
v -1.515268 1.44482 2.641128
v -0.5854366 1.460151 2.979831
v -0.5799815 0.8830215 3.019653
v -1.515268 1.44482 2.641128
v -0.5854366 1.460151 2.979831
v -0.5799815 0.8830215 3.019653
v -1.515268 1.44482 2.641128
v -0.5854366 1.460151 2.979831
v -0.5799815 0.8830215 3.019653
v -1.515268 1.44482 2.641128
v -0.5854366 1.460151 2.979831
v -0.5799815 0.8830215 3.019653
v 1.828142 0.6568217 -3.448417
v 1.807851 1.234142 -3.411267
v 0.8612036 1.205029 -3.769633
vn 0.34251 -0.06145127 -0.9375024
vn 0.34251 -0.06145127 -0.9375024
vn 0.34251 -0.06145127 -0.9375024
vn 0.34251 -0.06145127 -0.9375024
vn 0.34251 -0.06145127 -0.9375024
vn 0.34251 -0.06145127 -0.9375024
vn 0.34251 -0.06145127 -0.9375024
vn 0.34251 -0.06145127 -0.9375024
vn 0.34251 -0.06145127 -0.9375024
vn 0.34251 -0.06145127 -0.9375024
vn 0.34251 -0.06145127 -0.9375024
vn 0.34251 -0.06145127 -0.9375024
vn -0.351165 -0.07241206 0.9335093
vn -0.351165 -0.07241206 0.9335093
vn -0.351165 -0.07241206 0.9335093
f 1/1/1 2/2/2 3/3/3
f 4/4/4 5/5/5 6/6/6
f 7/7/7 8/8/8 9/9/9
f 10/10/10 11/11/11 12/12/12
f 13/13/13 14/14/14 15/15/15
