# Unity3D Mesh Exporter
v 3.245908 0.646606 -0.661274
v 3.27798 0.684289 0.3178316
v 3.243572 1.249698 0.3177028
v 3.241313 1.236586 0.3099163
v 3.203567 1.222898 -0.66509
v 3.246014 0.6407842 -0.6666911
v -0.4387305 0.2543062 0.6705673
v 1.364111 0.1871206 0.5927602
v 1.308031 0.170864 -0.8112857
v 1.320347 0.1976673 -0.8095581
v -0.4231154 0.2472791 -0.7535648
v -0.439394 0.2543769 0.6701158
v -0.4389955 0.2572627 0.6593675
v 1.364343 0.1829527 0.5866902
v 1.304515 0.1783776 -0.8151528
v -3.63434 1.428837 -0.4729043
v -3.662233 0.87334 -0.4683458
v -3.595025 1.457126 0.5313554
v -3.589931 1.448994 0.5278787
v -3.620356 0.888004 0.5416641
v -3.661182 0.8834669 -0.4683899
v -2.63316 0.927853 1.126333
v -2.205314 0.8942047 1.115664
v -2.650077 0.9083045 1.125295
v -2.621585 1.168207 1.106356
v -2.630586 0.9335913 1.126301
v -2.649251 0.9105654 1.126931
v -2.637058 1.415097 1.074802
v -2.64343 1.191794 1.10516
v -2.622233 1.19715 1.102944
v -2.632362 1.522595 1.055734
v -2.616335 1.411193 1.076429
v -2.637058 1.415097 1.074802
v -2.629679 1.612853 1.029626
v -2.614023 1.516733 1.055169
v -2.632362 1.522595 1.055734
v -2.629164 1.669637 1.010651
v -2.612076 1.609234 1.029868
v -2.629679 1.612853 1.029626
v -2.625577 1.716589 0.9930857
v -2.609587 1.697406 0.9993271
v -2.629164 1.669637 1.010651
v -2.190023 1.701684 0.9822235
v -2.60889 1.698863 0.9989958
v -2.625577 1.716589 0.9930857
v -2.189835 1.590572 1.02155
v -2.206847 1.687067 0.9895222
v -2.189128 1.702914 0.9810951
v -2.192231 1.494842 1.046712
v -2.212377 1.555077 1.031684
v -2.189131 1.589741 1.022115
v -2.194984 1.37664 1.067739
v -2.213492 1.392666 1.06794
v -2.191473 1.484704 1.04934
v -2.219724 1.185722 1.087953
v -2.202531 1.204931 1.089671
v -2.217388 1.282697 1.079106
v -2.205189 1.046139 1.105867
v -2.219343 1.15888 1.0948
v -2.199249 1.158211 1.095464
v -2.227726 0.9143784 1.117177
v -2.20745 0.8923901 1.118159
v -2.224188 1.021915 1.112011
v -2.631314 0.9318392 1.127034
v -2.227731 0.9144808 1.117321
v -2.20507 0.8959461 1.117451
v -2.622751 1.168903 1.1081
v -2.622552 1.196632 1.104636
v -2.216007 1.184763 1.095212
v -2.561421 1.163209 1.06304
v -2.5617 1.1496 1.089636
v -2.537016 1.192842 1.105978
v -2.318616 1.205891 1.059593
v -2.31234 1.212169 1.087612
v -2.299989 1.166294 1.094459
v -2.191301 1.393317 1.028641
v -2.205636 1.435896 1.038276
v -2.203732 1.445395 1.05425
v -3.286682 1.506726 0.7519841
v -3.252195 1.62759 0.8043275
v -3.274318 1.515296 0.8333181
v -3.244054 1.701024 0.7351149
v -3.288039 1.50576 0.6998717
v -3.286682 1.506726 0.7519841
v -3.236436 1.79886 0.517131
v -3.281152 1.508039 0.6020369
v -3.238862 1.764251 0.6341533
v -3.240118 1.805366 0.3933143
v -3.294338 1.50365 0.4689268
v -3.236436 1.79886 0.517131
v -3.24435 1.814553 0.3199391
v -3.288665 1.510899 0.3196083
v -3.240118 1.805366 0.3933143
v -3.257467 1.823572 0.2488059
v -3.303915 1.505172 0.2712583
v -3.24435 1.814553 0.3199391
v -3.267678 1.817637 0.0662462
v -3.309527 1.502344 0.1669476
v -3.257467 1.823572 0.2488059
v -3.272997 1.817735 -0.06057371
v -3.311995 1.502063 0.06486484
v -3.267678 1.817637 0.0662462
v -3.279789 1.816612 -0.2021685
v -3.31772 1.49941 -0.08375175
v -3.272997 1.817735 -0.06057371
v -3.280144 1.813086 -0.2729876
v -3.31996 1.49833 -0.1766748
v -3.279789 1.816612 -0.2021685
v -3.285578 1.803199 -0.3891318
v -3.323238 1.497007 -0.2480053
v -3.280144 1.813086 -0.2729876
v -3.287013 1.790427 -0.484802
v -3.284494 1.802864 -0.4008785
v -3.327457 1.493133 -0.4279044
v -3.300227 1.719773 -0.6601314
v -3.293381 1.774633 -0.5648134
v -3.336215 1.487709 -0.5384125
v -3.313849 1.64389 -0.7523193
v -3.306373 1.699956 -0.6933101
v -3.339695 1.487569 -0.6494796
v -3.348711 1.485056 -0.7984604
v -3.321659 1.597308 -0.7901895
v -3.34481 1.483818 -0.7311574
v -3.333451 1.510286 -0.8233591
v -3.348711 1.485056 -0.7984604
v -3.321659 1.597308 -0.7901895
v -3.257792 1.536202 0.8317779
v -3.264001 1.807469 -0.003975229
v -3.326406 1.519256 -0.8187369
v -3.331708 1.493649 -0.7985395
v -3.304003 1.524141 -0.07644812
v -3.270182 1.51463 0.8306672
v -3.483596 1.486233 -0.7847083
v -3.404197 1.487228 -0.8465614
v -3.342475 1.485354 -0.8060544
v -3.338439 1.483148 -0.6563203
v -3.57084 1.497301 -0.6752414
v -3.485949 1.487449 -0.7814859
v -3.334187 1.48533 -0.5540618
v -3.623697 1.510187 -0.508099
v -3.6008 1.504344 -0.6209734
v -3.323011 1.486097 -0.4240859
v -3.615789 1.513808 -0.2568283
v -3.622229 1.509767 -0.4127792
v -3.592083 1.516362 0.1963649
v -3.306489 1.493898 -0.07921444
v -3.609004 1.513029 -0.136928
v -3.281284 1.507096 0.4913969
v -3.579327 1.520017 0.5167108
v -3.296141 1.500069 0.1497167
v -3.579232 1.520607 0.4996802
v -3.300148 1.494583 0.1091441
v -3.589767 1.512194 0.1943587
v -3.284065 1.509437 0.5434415
v -3.48454 1.51792 0.7768165
v -3.572754 1.52214 0.6146184
v -3.279253 1.509968 0.8321356
v -3.343427 1.516719 0.8872769
v -3.444965 1.514769 0.8198978
v -3.463463 1.514284 0.8007922
v -3.287049 1.508625 0.6424665
v -3.279253 1.509968 0.8321356
v -3.338655 1.739925 0.7152745
v -3.254047 1.671982 0.7639053
v -3.333614 1.614496 0.8317626
v -3.248721 1.799912 0.5156722
v -3.353976 1.797967 0.6035658
v -3.24817 1.75651 0.6446086
v -3.264065 1.81028 0.2987519
v -3.425966 1.827883 0.3241344
v -3.248721 1.799912 0.5156722
v -3.459925 1.825955 0.03892459
v -3.276364 1.805063 0.004436992
v -3.264065 1.81028 0.2987519
v -3.440178 1.817319 -0.2930087
v -3.27852 1.800324 -0.1780737
v -3.459925 1.825955 0.03892459
v -3.401684 1.797948 -0.5174767
v -3.29553 1.785699 -0.4824003
v -3.440178 1.817319 -0.2930087
v -3.394476 1.737839 -0.6553637
v -3.30772 1.714189 -0.6621348
v -3.401684 1.797948 -0.5174767
v -3.396124 1.637129 -0.7647069
v -3.328864 1.626235 -0.7658771
v -3.394476 1.737839 -0.6553637
v -1.704462 1.737139 0.9602262
v -1.98348 1.710849 0.9850093
v -2.107843 1.52768 1.046481
v -1.449046 1.175731 1.082603
v -1.448748 1.51106 1.027898
v -1.705664 1.737471 0.957948
vn -0.997542 -0.0606981 0.03501208
vn -0.997542 -0.0606981 0.03501208
vn -0.997542 -0.0606981 0.03501208
vn -0.9965617 -0.0727775 0.03960239
vn -0.9965617 -0.0727775 0.03960239
vn -0.9965617 -0.0727775 0.03960239
vn 0.03667571 0.9992423 -0.01303452
vn 0.03667571 0.9992423 -0.01303452
vn 0.03667571 0.9992423 -0.01303452
vn 0.02829454 0.9995887 -0.004659923
vn 0.02829454 0.9995887 -0.004659923
vn 0.02829454 0.9995887 -0.004659923
vn 0.04096992 0.9991478 -0.005009332
vn 0.04096992 0.9991478 -0.005009332
vn 0.04096992 0.9991478 -0.005009332
vn -0.998018 0.05042094 0.0376506
vn -0.998018 0.05042094 0.0376506
vn -0.998018 0.05042094 0.0376506
vn 0.9976766 -0.0550947 -0.04007831
vn 0.9976766 -0.0550947 -0.04007831
vn 0.9976766 -0.0550947 -0.04007831
vn -0.01938651 0.0697278 -0.9973776
vn -0.01938651 0.0697278 -0.9973776
vn -0.01938651 0.0697278 -0.9973776
vn 0.07420505 -0.0873005 -0.9934144
vn 0.07420505 -0.0873005 -0.9934144
vn 0.07420505 -0.0873005 -0.9934144
vn 0.06991652 0.1324212 0.9887245
vn 0.06991652 0.1324212 0.9887245
vn 0.06991652 0.1324212 0.9887245
vn 0.04398247 -0.176348 -0.9833448
vn 0.04398247 -0.176348 -0.9833448
vn 0.04398247 -0.176348 -0.9833448
vn -0.1166286 -0.2727732 -0.954983
vn -0.1166286 -0.2727732 -0.954983
vn -0.1166286 -0.2727732 -0.954983
vn -0.05193247 -0.3160881 -0.9473074
vn -0.05193247 -0.3160881 -0.9473074
vn -0.05193247 -0.3160881 -0.9473074
vn -0.05018114 -0.34658 -0.9366773
vn -0.05018114 -0.34658 -0.9366773
vn -0.05018114 -0.34658 -0.9366773
vn -0.03521732 -0.3457802 -0.9376544
vn -0.03521732 -0.3457802 -0.9376544
vn -0.03521732 -0.3457802 -0.9376544
vn -0.1438052 -0.3344816 -0.9313657
vn -0.1438052 -0.3344816 -0.9313657
vn -0.1438052 -0.3344816 -0.9313657
vn -0.02554549 -0.2500342 -0.9679
vn -0.02554549 -0.2500342 -0.9679
vn -0.02554549 -0.2500342 -0.9679
vn -0.1501644 -0.1612004 -0.9754307
vn -0.1501644 -0.1612004 -0.9754307
vn -0.1501644 -0.1612004 -0.9754307
vn -0.2022056 0.09380731 0.97484
vn -0.2022056 0.09380731 0.97484
vn -0.2022056 0.09380731 0.97484
vn 0.02972819 -0.09394885 -0.9951331
vn 0.02972819 -0.09394885 -0.9951331
vn 0.02972819 -0.09394885 -0.9951331
vn 0.003553312 0.04787112 0.9988472
vn 0.003553312 0.04787112 0.9988472
vn 0.003553312 0.04787112 0.9988472
vn -0.0256927 -0.0384155 -0.9989315
vn -0.0256927 -0.0384155 -0.9989315
vn -0.0256927 -0.0384155 -0.9989315
vn -0.02660616 -0.1237308 -0.991959
vn -0.02660616 -0.1237308 -0.991959
vn -0.02660616 -0.1237308 -0.991959
vn -0.8812417 0.4244635 0.2079517
vn -0.8812417 0.4244635 0.2079517
vn -0.8812417 0.4244635 0.2079517
vn 0.9416581 0.2148872 -0.2590438
vn 0.9416581 0.2148872 -0.2590438
vn 0.9416581 0.2148872 -0.2590438
vn 0.8727742 0.3667335 -0.322136
vn 0.8727742 0.3667335 -0.322136
vn 0.8727742 0.3667335 -0.322136
vn 0.9670855 -0.2224286 -0.1235758
vn 0.9670855 -0.2224286 -0.1235758
vn 0.9670855 -0.2224286 -0.1235758
vn -0.9761533 0.2160234 0.02141468
vn -0.9761533 0.2160234 0.02141468
vn -0.9761533 0.2160234 0.02141468
vn -0.986831 0.1595329 0.02671912
vn -0.986831 0.1595329 0.02671912
vn -0.986831 0.1595329 0.02671912
vn -0.9817396 0.1861938 0.03897825
vn -0.9817396 0.1861938 0.03897825
vn -0.9817396 0.1861938 0.03897825
vn -0.9867474 0.1439217 0.07494028
vn -0.9867474 0.1439217 0.07494028
vn -0.9867474 0.1439217 0.07494028
vn -0.9678168 0.1551545 0.1981356
vn -0.9678168 0.1551545 0.1981356
vn -0.9678168 0.1551545 0.1981356
vn -0.9878142 0.1472305 0.05046235
vn -0.9878142 0.1472305 0.05046235
vn -0.9878142 0.1472305 0.05046235
vn -0.9894503 0.1387694 0.04160812
vn -0.9894503 0.1387694 0.04160812
vn -0.9894503 0.1387694 0.04160812
vn -0.9896676 0.135666 0.04639725
vn -0.9896676 0.135666 0.04639725
vn -0.9896676 0.135666 0.04639725
vn -0.9921411 0.1251179 -0.001252845
vn -0.9921411 0.1251179 -0.001252845
vn -0.9921411 0.1251179 -0.001252845
vn -0.9898711 0.1376914 0.03458332
vn -0.9898711 0.1376914 0.03458332
vn -0.9898711 0.1376914 0.03458332
vn 0.9905841 -0.1365768 -0.009483384
vn 0.9905841 -0.1365768 -0.009483384
vn 0.9905841 -0.1365768 -0.009483384
vn 0.9891301 -0.1464449 0.01324936
vn 0.9891301 -0.1464449 0.01324936
vn 0.9891301 -0.1464449 0.01324936
vn 0.9883235 -0.1512435 0.0184943
vn 0.9883235 -0.1512435 0.0184943
vn 0.9883235 -0.1512435 0.0184943
vn 0.9713941 -0.2296332 -0.06051571
vn 0.9713941 -0.2296332 -0.06051571
vn 0.9713941 -0.2296332 -0.06051571
vn -0.9172389 0.2442278 -0.3146836
vn -0.9172389 0.2442278 -0.3146836
vn -0.9172389 0.2442278 -0.3146836
vn -0.9940344 0.1013552 0.04028268
vn -0.9940344 0.1013552 0.04028268
vn -0.9940344 0.1013552 0.04028268
vn 0.9990869 -0.02053452 -0.03746551
vn 0.9990869 -0.02053452 -0.03746551
vn 0.9990869 -0.02053452 -0.03746551
vn -0.01074186 -0.9994959 -0.02987764
vn -0.01074186 -0.9994959 -0.02987764
vn -0.01074186 -0.9994959 -0.02987764
vn -0.06408342 -0.9970914 0.04125535
vn -0.06408342 -0.9970914 0.04125535
vn -0.06408342 -0.9970914 0.04125535
vn -0.07991523 -0.9961745 0.03535429
vn -0.07991523 -0.9961745 0.03535429
vn -0.07991523 -0.9961745 0.03535429
vn -0.07773457 -0.9965513 0.0290325
vn -0.07773457 -0.9965513 0.0290325
vn -0.07773457 -0.9965513 0.0290325
vn 0.0656395 0.9977547 -0.01330877
vn 0.0656395 0.9977547 -0.01330877
vn 0.0656395 0.9977547 -0.01330877
vn -0.0414067 -0.9988926 0.02234233
vn -0.0414067 -0.9988926 0.02234233
vn -0.0414067 -0.9988926 0.02234233
vn 0.05207657 0.9982131 -0.02930167
vn 0.05207657 0.9982131 -0.02930167
vn 0.05207657 0.9982131 -0.02930167
vn -0.04441142 -0.9990116 -0.001837474
vn -0.04441142 -0.9990116 -0.001837474
vn -0.04441142 -0.9990116 -0.001837474
vn -0.03486646 -0.9960744 0.0813648
vn -0.03486646 -0.9960744 0.0813648
vn -0.03486646 -0.9960744 0.0813648
vn -0.02479929 -0.9996596 0.008100251
vn -0.02479929 -0.9996596 0.008100251
vn -0.02479929 -0.9996596 0.008100251
vn -0.1279694 -0.6776676 -0.724148
vn -0.1279694 -0.6776676 -0.724148
vn -0.1279694 -0.6776676 -0.724148
vn 0.2407843 0.920173 0.3087144
vn 0.2407843 0.920173 0.3087144
vn 0.2407843 0.920173 0.3087144
vn 0.1141048 0.9926881 0.03937493
vn 0.1141048 0.9926881 0.03937493
vn 0.1141048 0.9926881 0.03937493
vn -0.1089433 -0.9938008 0.02216742
vn -0.1089433 -0.9938008 0.02216742
vn -0.1089433 -0.9938008 0.02216742
vn -0.117763 -0.9928632 0.01882771
vn -0.117763 -0.9928632 0.01882771
vn -0.117763 -0.9928632 0.01882771
vn -0.1346731 -0.9889329 0.06224739
vn -0.1346731 -0.9889329 0.06224739
vn -0.1346731 -0.9889329 0.06224739
vn -0.2154265 -0.8992386 0.3807379
vn -0.2154265 -0.8992386 0.3807379
vn -0.2154265 -0.8992386 0.3807379
vn -0.1065955 -0.7305552 0.6744824
vn -0.1065955 -0.7305552 0.6744824
vn -0.1065955 -0.7305552 0.6744824
vn 0.0585262 0.281679 0.9577221
vn 0.0585262 0.281679 0.9577221
vn 0.0585262 0.281679 0.9577221
vn -0.125717 0.1598399 0.9791049
vn -0.125717 0.1598399 0.9791049
vn -0.125717 0.1598399 0.9791049
f 1/1/1 2/2/2 3/3/3
f 4/4/4 5/5/5 6/6/6
f 7/7/7 8/8/8 9/9/9
f 10/10/10 11/11/11 12/12/12
f 13/13/13 14/14/14 15/15/15
f 16/16/16 17/17/17 18/18/18
f 19/19/19 20/20/20 21/21/21
f 22/22/22 23/23/23 24/24/24
f 25/25/25 26/26/26 27/27/27
f 28/28/28 29/29/29 30/30/30
f 31/31/31 32/32/32 33/33/33
f 34/34/34 35/35/35 36/36/36
f 37/37/37 38/38/38 39/39/39
f 40/40/40 41/41/41 42/42/42
f 43/43/43 44/44/44 45/45/45
f 46/46/46 47/47/47 48/48/48
f 49/49/49 50/50/50 51/51/51
f 52/52/52 53/53/53 54/54/54
f 55/55/55 56/56/56 57/57/57
f 58/58/58 59/59/59 60/60/60
f 61/61/61 62/62/62 63/63/63
f 64/64/64 65/65/65 66/66/66
f 67/67/67 68/68/68 69/69/69
f 70/70/70 71/71/71 72/72/72
f 73/73/73 74/74/74 75/75/75
f 76/76/76 77/77/77 78/78/78
f 79/79/79 80/80/80 81/81/81
f 82/82/82 83/83/83 84/84/84
f 85/85/85 86/86/86 87/87/87
f 88/88/88 89/89/89 90/90/90
f 91/91/91 92/92/92 93/93/93
f 94/94/94 95/95/95 96/96/96
f 97/97/97 98/98/98 99/99/99
f 100/100/100 101/101/101 102/102/102
f 103/103/103 104/104/104 105/105/105
f 106/106/106 107/107/107 108/108/108
f 109/109/109 110/110/110 111/111/111
f 112/112/112 113/113/113 114/114/114
f 115/115/115 116/116/116 117/117/117
f 118/118/118 119/119/119 120/120/120
f 121/121/121 122/122/122 123/123/123
f 124/124/124 125/125/125 126/126/126
f 127/127/127 128/128/128 129/129/129
f 130/130/130 131/131/131 132/132/132
f 133/133/133 134/134/134 135/135/135
f 136/136/136 137/137/137 138/138/138
f 139/139/139 140/140/140 141/141/141
f 142/142/142 143/143/143 144/144/144
f 145/145/145 146/146/146 147/147/147
f 148/148/148 149/149/149 150/150/150
f 151/151/151 152/152/152 153/153/153
f 154/154/154 155/155/155 156/156/156
f 157/157/157 158/158/158 159/159/159
f 160/160/160 161/161/161 162/162/162
f 163/163/163 164/164/164 165/165/165
f 166/166/166 167/167/167 168/168/168
f 169/169/169 170/170/170 171/171/171
f 172/172/172 173/173/173 174/174/174
f 175/175/175 176/176/176 177/177/177
f 178/178/178 179/179/179 180/180/180
f 181/181/181 182/182/182 183/183/183
f 184/184/184 185/185/185 186/186/186
f 187/187/187 188/188/188 189/189/189
f 190/190/190 191/191/191 192/192/192
